{"title":"James Bond - 007 - Dr No","uid":5596450,"size":592821896,"categoryP":"video","categoryS":"movies","magnet":"?xt=urn:btih:0447c9e9b5b6ad628a863195d67df8830bec6309&amp;dn=James+Bond+-+007+-+Dr+No&amp;tr=udp%3A%2F%2Ftracker.openbittorrent.com%3A80&amp;tr=udp%3A%2F%2Fopen.demonii.com%3A1337&amp;tr=udp%3A%2F%2Ftracker.coppersurfer.tk%3A6969&amp;tr=udp%3A%2F%2Fexodus.desync.com%3A6969","seeders":0,"leechers":0,"uploader":"YoCkNeR-BeNzO","files":2,"time":1275007691,"description":"Bond's mission takes him to the steamy island of Jamaica, where mysterious energy waves are interfering with U.S. missile launches. As he unravels the astonishing truth, 007 must fight deadly assassins, sexy femme fatales and even a poisonous tarantula. With the help of crack CIA agent Felix Leiter and the beautiful Honey Ryder, he searches for the headquarters of Dr. No, a fanatical scientist who is implementing an evil plan of world domination. Only James Bond, with his combination of wit, charm and skill, can confront the madman and save the human race from a horrible fate.\n\n\nFormat : AVI\nFormat/Info : Audio Video Interleave\nFile size : 565 MiB\nDuration : 1h 49mn\nOverall bit rate : 720 Kbps\nWriting application : MEncoder SVN-r29352(20090610-gcc4.3.3)\nWriting library : MPlayer\n\nVideo\nFormat : avc1\nCodec ID : avc1\nDuration : 1h 49mn\nBit rate : 579 Kbps\nWidth : 480 pixels\nHeight : 360 pixels\nDisplay aspect ratio : 4:3\nFrame rate : 25.000 fps\nBits/(Pixel*Frame) : 0.134\nStream size : 455 MiB (81%)\n\nAudio\nID : 1\nFormat : MPEG Audio\nFormat version : Version 1\nFormat profile : Layer 3\nMode : Joint stereo\nFormat_Settings_ModeExtension : MS Stereo\nCodec ID : 55\nCodec ID/Hint : MP3\nDuration : 1h 49mn\nBit rate mode : Constant\nBit rate : 128 Kbps\nChannel(s) : 2 channels\nSampling rate : 44.1 KHz\nStream size : 101 MiB (18%)\nAlignment : Aligned on interleaves\nInterleave, duration : 26 ms (0.65 video frame)\nInterleave, preload duration : 522 ms","torrent":{"xt":"urn:btih:0447c9e9b5b6ad628a863195d67df8830bec6309","amp;dn":"James+Bond+-+007+-+Dr+No","amp;tr":["udp%3A%2F%2Ftracker.openbittorrent.com%3A80","udp%3A%2F%2Fopen.demonii.com%3A1337","udp%3A%2F%2Ftracker.coppersurfer.tk%3A6969","udp%3A%2F%2Fexodus.desync.com%3A6969"],"infoHash":"0447c9e9b5b6ad628a863195d67df8830bec6309","infoHashBuffer":{"type":"Buffer","data":[4,71,201,233,181,182,173,98,138,134,49,149,214,125,248,131,11,236,99,9]},"announce":[],"urlList":[]}}